#!OML:ASF E:\id_vita\Project 1\Capture day 1\Session 1\Male1.ASF
:FULLY-SPECIFIED
:DEGREES
567
root -22.7801 15.2454 -1.42581 544.1 -31.6329 -536.961
lowerback 6.18314 -2.38991 -9.313
upperback 2.65986 -4.08372 -3.8288
thorax -0.348863 -2.22516 1.48003
lowerneck -6.56693 -0.931293 1.67409
upperneck -21.7613 -2.9761 3.79828
head -5.47841 -2.73132 1.08641
rclavicle -8.74653e-015 -2.8625e-014
rhumerus -33.6968 -2.30777 -89.9491
rradius 29.1685
rwrist 4.77383
rhand -18.9349 35.3813
rfingers 7.12502
rthumb 7.36797 5.52964
lclavicle -8.74653e-015 -2.8625e-014
lhumerus -18.8942 15.6556 75.08
lradius 18.7955
lwrist -8.25134
lhand -10.8175 46.8452
lfingers 7.12502
lthumb 15.1963 76.2672
rfemur -37.8767 -2.15234 26.3349
rtibia 37.689
rfoot -17.4211 6.08521
rtoes 13.9488
lfemur -21.9626 20.4096 -22.5017
ltibia 49.8586
lfoot -29.3111 -13.7941
ltoes 45.1753
568
root -22.7835 15.2046 -1.44357 544.223 -31.693 -537.145
lowerback 6.25702 -2.36543 -9.41179
upperback 2.67266 -4.08216 -3.97322
thorax -0.381401 -2.22937 1.38865
lowerneck -6.63697 -0.936792 1.78748
upperneck -21.7231 -2.98478 3.82761
head -5.45639 -2.74549 1.075
rclavicle -9.81996e-014 5.725e-014
rhumerus -33.6523 -2.89946 -89.8926
rradius 29.3007
rwrist 5.31648
rhand -19.0065 35.3319
rfingers 7.12502
rthumb 7.29886 5.47777
lclavicle -9.81996e-014 5.725e-014
lhumerus -18.8277 15.1129 74.9412
lradius 18.89
lwrist -7.67167
lhand -10.7593 46.7966
lfingers 7.12502
lthumb 15.2524 76.2143
rfemur -37.6526 -0.922542 25.3188
rtibia 37.602
rfoot -12.7709 7.12733
rtoes 30.2675
lfemur -22.2271 20.4302 -22.662
ltibia 50.478
lfoot -29.7567 -13.8195
ltoes 45.1701
569
root -22.7896 15.1872 -1.46103 544.096 -31.7663 -536.978
lowerback 6.43844 -2.37361 -9.29922
upperback 2.68934 -4.10892 -3.97472
thorax -0.470997 -2.23905 1.33742
lowerneck -6.59982 -0.904956 1.81372
upperneck -21.8252 -2.93469 3.93124
head -5.49397 -2.73722 1.1053
rclavicle -6.91771e-014 5.40694e-014
rhumerus -33.4886 -2.30794 -90.1723
rradius 29.3074
rwrist 4.67206
rhand -19.1692 35.7326
rfingers 7.12502
rthumb 7.14182 5.87312
lclavicle -6.91771e-014 5.40694e-014
lhumerus -18.7827 15.3879 74.7569
lradius 18.8752
lwrist -7.78116
lhand -10.5365 46.7697
lfingers 7.12502
lthumb 15.467 76.1709
rfemur -37.684 -2.18995 26.2594
rtibia 37.6146
rfoot -9.79535 7.14001
rtoes 34.5978
lfemur -22.389 20.487 -22.4646
ltibia 51.0619
lfoot -30.2019 -13.7764
ltoes 44.8532
570
root -22.7964 15.1786 -1.47672 543.82 -31.9582 -536.49
lowerback 6.60868 -2.42916 -8.9022
upperback 2.70529 -4.1598 -3.83131
thorax -0.561885 -2.25272 1.28157
lowerneck -6.64026 -0.927506 1.69422
upperneck -21.8416 -2.96384 3.97047
head -5.48957 -2.74677 1.13828
rclavicle 3.4191e-014 3.81667e-014
rhumerus -33.4302 -2.20169 -90.1439
rradius 29.6191
rwrist 4.5688
rhand -18.9835 35.7969
rfingers 7.12502
rthumb 7.32107 5.94358
lclavicle 3.4191e-014 3.81667e-014
lhumerus -18.7772 16.0025 74.6782
lradius 18.835
lwrist -8.2103
lhand -10.7292 46.8513
lfingers 7.12502
lthumb 15.2814 76.2668
rfemur -37.6864 -2.00914 26.761
rtibia 37.8184
rfoot -6.01105 6.38091
rtoes 46.9794
lfemur -22.4913 20.4074 -21.9703
ltibia 51.4413
lfoot -30.5527 -13.6381
ltoes 44.4075
571
root -22.8013 15.1661 -1.49339 543.785 -32.1286 -536.285
lowerback 6.63348 -2.44241 -8.73532
upperback 2.73685 -4.16127 -3.77998
thorax -0.550682 -2.25158 1.24392
lowerneck -6.84624 -0.987017 1.65434
upperneck -21.7338 -3.05615 3.97046
head -5.4205 -2.78612 1.1415
rclavicle 4.77083e-014 4.13472e-014
rhumerus -33.1866 -2.38663 -90.0739
rradius 29.7423
rwrist 4.70906
rhand -18.886 35.5789
rfingers 7.12502
rthumb 7.4152 5.72883
lclavicle 4.77083e-014 4.13472e-014
lhumerus -18.6788 16.4854 74.6096
lradius 18.7617
lwrist -8.66604
lhand -11.3254 46.7926
lfingers 7.12502
lthumb 14.707 76.2509
rfemur -37.9604 -2.34608 26.995
rtibia 38.2108
rfoot -6.21273 7.03798
rtoes 45.9809
lfemur -22.6294 20.2802 -21.7686
ltibia 51.7134
lfoot -30.6636 -13.9093
ltoes 45.1294
572
root -22.801 15.1532 -1.51139 543.887 -32.2008 -536.345
lowerback 6.67293 -2.41447 -8.90222
upperback 2.75754 -4.14048 -3.76872
thorax -0.539824 -2.24453 1.34676
lowerneck -6.80753 -0.988231 1.60453
upperneck -21.8417 -3.0676 3.94179
head -5.46056 -2.79232 1.14436
rclavicle -2.78299e-014 -1.59028e-014
rhumerus -32.945 -2.03113 -90.1682
rradius 29.7833
rwrist 4.30873
rhand -18.9958 35.3857
rfingers 7.12502
rthumb 7.30922 5.53192
lclavicle -2.78299e-014 -1.59028e-014
lhumerus -18.4993 16.5141 74.6062
lradius 18.615
lwrist -8.76277
lhand -11.6657 46.9427
lfingers 7.12502
lthumb 14.3791 76.4246
rfemur -38.1688 -1.95296 26.8672
rtibia 38.6232
rfoot -6.59227 6.47523
rtoes 46.9731
lfemur -22.7296 20.2571 -21.7984
ltibia 51.8943
lfoot -30.7468 -14.2023
ltoes 45.893
